<?xml version="1.0" encoding="UTF-8"?>
<svg version="1.1" xmlns="http://www.w3.org/2000/svg" width="1024" height="751">
<path d="M0 0 C337.92 0 675.84 0 1024 0 C1024 247.83 1024 495.66 1024 751 C686.08 751 348.16 751 0 751 C0 503.17 0 255.34 0 0 Z " fill="#2A2C38" transform="translate(0,0)"/>
<path d="M0 0 C3.63491605 1.09879054 7.27968434 2.16312937 10.9241333 3.22979736 C12.93235286 3.81762534 14.94011292 4.407025 16.94744873 4.99786377 C28.86727911 8.49884787 40.8379347 11.81616865 52.80905151 15.1366272 C56.72425892 16.22262157 60.63871121 17.31131851 64.55297852 18.4006958 C65.19989938 18.58073245 65.84682024 18.7607691 66.51334476 18.94626141 C67.81819078 19.3094011 69.123035 19.67254723 70.42787743 20.03569984 C72.37735686 20.57818794 74.32689065 21.12048023 76.27644348 21.66270447 C88.14489656 24.96372623 100.01139798 28.27169115 111.87524414 31.5892334 C113.92424983 32.1619879 115.97339606 32.73423996 118.02270508 33.3059082 C122.70061667 34.61091218 127.37621632 35.92298948 132.04736328 37.25201416 C136.11441826 38.40669174 140.19338037 39.50558536 144.28076172 40.58599854 C146.46006199 41.17970324 148.63926367 41.77377 150.81835938 42.3682251 C151.8336824 42.62721588 152.84900543 42.88620667 153.89509583 43.15304565 C160.05786278 44.86380139 163.25109625 46.38012037 166.71289062 51.8447876 C167.77193029 55.0219066 167.84386464 57.27987082 167.85333252 60.61801147 C167.85904266 61.82288712 167.86475281 63.02776276 167.87063599 64.26914978 C167.87188147 65.60702504 167.87300654 66.94490042 167.87402344 68.28277588 C167.87865305 69.6909142 167.88367791 71.09905127 167.8890686 72.50718689 C167.90220357 76.34120972 167.90864275 80.17521501 167.91307926 84.00925684 C167.9160156 86.41507735 167.92012203 88.82089314 167.92458344 91.22671127 C167.93827742 98.78248037 167.9479279 106.3382386 167.95178533 113.89401925 C167.95623442 122.55848612 167.97362572 131.22279273 168.00278592 139.88721097 C168.02461953 146.61372436 168.03450141 153.34019348 168.03582644 160.06674182 C168.03686158 164.06770103 168.0424835 168.06851008 168.06064606 172.0694313 C168.36605588 243.57985347 144.50746554 300.73115773 94.21289062 351.5322876 C89.15928154 356.58589669 83.98732077 361.32601806 78.36523438 365.7510376 C75.53969581 367.98150692 72.82042371 370.31405706 70.08789062 372.6572876 C51.27959918 388.31876065 30.06570567 401.006255 8.46484375 412.38677979 C5.71711974 413.84254698 2.98880027 415.3309076 0.25976562 416.8213501 C-1.48401763 417.74772996 -3.22877016 418.67228821 -4.97460938 419.5947876 C-5.75118896 420.02549561 -6.52776855 420.45620361 -7.32788086 420.89996338 C-13.32209494 423.99544654 -18.5957831 425.14012236 -25.28710938 423.8447876 C-30.66154525 421.84097371 -35.66182124 419.27538084 -40.72460938 416.5947876 C-42.15106443 415.85853823 -43.57807204 415.12335849 -45.00561523 414.38922119 C-56.04606727 408.66971031 -66.82328208 402.56611385 -77.28710938 395.8447876 C-77.95403809 395.42036377 -78.6209668 394.99593994 -79.30810547 394.55865479 C-96.14485931 383.79286601 -112.08692577 371.54868377 -126.83789062 358.0713501 C-128.42259473 356.63071001 -130.02334777 355.2074469 -131.64257812 353.8057251 C-173.98800174 316.91754205 -204.22887636 261.10171718 -208.28710938 204.8447876 C-208.44032761 199.87804967 -208.45476196 194.91211476 -208.46411133 189.94342041 C-208.47038957 188.46401312 -208.47703753 186.98460736 -208.48402405 185.50520325 C-208.50487964 180.68611716 -208.51539891 175.86703136 -208.52539062 171.0479126 C-208.52944308 169.381996 -208.53356014 167.71607955 -208.53774071 166.05016327 C-208.5567401 158.23122981 -208.57099019 150.41230556 -208.57935268 142.59335351 C-208.58914977 133.58460286 -208.61555534 124.57609628 -208.65585357 115.56743169 C-208.6860036 108.58714951 -208.70081989 101.60693748 -208.70413369 94.62659144 C-208.70648245 90.46365001 -208.71542269 86.30097097 -208.74059486 82.13809967 C-208.76386587 78.2276443 -208.76811302 74.3176245 -208.75783348 70.40711784 C-208.75733802 68.97443886 -208.76366164 67.54173843 -208.77738953 66.10912514 C-208.88737193 53.95007379 -208.88737193 53.95007379 -206.51391602 50.08216858 C-204.40096675 47.95918564 -202.95074994 46.75121098 -200.18823242 45.66290283 C-199.39629486 45.34997284 -198.6043573 45.03704285 -197.78842163 44.71463013 C-193.52226091 43.23105365 -189.22361127 41.95265251 -184.86914062 40.75494385 C-183.30533157 40.31535339 -183.30533157 40.31535339 -181.70993042 39.86688232 C-179.40277485 39.21912064 -177.09474801 38.57445631 -174.78598022 37.9324646 C-171.01032947 36.88245892 -167.2368415 35.82490211 -163.46411133 34.76446533 C-162.7970539 34.57699517 -162.12999647 34.38952501 -161.44272518 34.19637394 C-160.04451389 33.80341756 -158.64630891 33.41043868 -157.24810982 33.01743889 C-155.02837475 32.3938602 -152.80839011 31.77117629 -150.58836365 31.14863586 C-129.69489279 25.28688255 -108.82733524 19.33345379 -87.9559021 13.39382935 C-81.01619049 11.41896547 -74.07613039 9.44532841 -67.13598633 7.47198486 C-58.92157452 5.13624542 -50.70716583 2.80049516 -42.49291992 0.46417236 C-41.24121868 0.10821031 -41.24121868 0.10821031 -39.96423054 -0.25494289 C-38.79267807 -0.58817861 -38.79267807 -0.58817861 -37.59745789 -0.92814636 C-36.86616291 -1.13580281 -36.13486794 -1.34345926 -35.38141251 -1.55740833 C-34.00303067 -1.95085771 -32.6256416 -2.34780467 -31.24935532 -2.74852276 C-20.1745473 -5.96640107 -10.72603694 -3.24488907 0 0 Z " fill="#6EB576" transform="translate(437.287109375,273.15521240234375)"/>
<path d="M0 0 C1.02206543 0.24669434 2.04413086 0.49338867 3.09716797 0.74755859 C23.65918886 5.84038694 43.34407915 12.95159695 62 23 C62.99507568 23.52762939 62.99507568 23.52762939 64.01025391 24.06591797 C91.23314967 38.5600417 116.23701466 59.48390417 135 84 C135.64533691 84.83869629 135.64533691 84.83869629 136.30371094 85.69433594 C161.66056955 118.82561819 176.89691581 157.66204871 182 199 C182.17273438 200.25087402 182.34546875 201.50174805 182.5234375 202.79052734 C183.01840391 206.7683387 183.14468542 210.68822624 183.16796875 214.69921875 C183.17220352 215.40806717 183.17643829 216.11691559 183.18080139 216.84724426 C183.19062511 219.12739087 183.19073139 221.40733609 183.1875 223.6875 C183.18689575 224.46867188 183.1862915 225.24984375 183.18566895 226.0546875 C183.14549289 245.18241108 181.55525601 263.38926076 177 282 C176.79391113 282.86206055 176.58782227 283.72412109 176.37548828 284.61230469 C169.44700844 313.18645416 157.33402668 341.82958352 139 365 C138.31421875 365.89332031 137.6284375 366.78664063 136.921875 367.70703125 C132.88174897 372.88443685 128.57494852 377.78727947 124.14453125 382.6328125 C122.25461926 384.71894486 120.43688253 386.84649761 118.625 389 C86.14320006 426.09020176 35.94907506 447.56679155 -11.6875 455.75 C-12.4302417 455.87793945 -13.1729834 456.00587891 -13.93823242 456.13769531 C-18.00018073 456.79696684 -21.88638619 457.12956264 -26 457 C-23.78647687 450.14051074 -21.26751867 443.44581115 -18.60546875 436.75 C-18.31285156 436.0075 -18.02023437 435.265 -17.71875 434.5 C-17.42806641 433.76249512 -17.13738281 433.02499023 -16.83789062 432.26513672 C-15.98211914 429.95166124 -15.27317233 427.61937861 -14.5625 425.2578125 C-13.25396948 421.27525326 -11.52080682 418.84676775 -8.5 415.875 C11.34972311 395.07594231 25.4984902 367.95428307 35 341 C33.96875 340.88785156 32.9375 340.77570313 31.875 340.66015625 C25.53607142 339.86779018 19.27524563 338.62032085 13 337.4375 C11.74832031 337.20353516 10.49664063 336.96957031 9.20703125 336.72851562 C6.13762316 336.15446602 3.06875647 335.57752292 0 335 C0 327.74 0 320.48 0 313 C10.12534708 313 10.12534708 313 15.609375 314.05859375 C16.77597656 314.27966797 17.94257812 314.50074219 19.14453125 314.72851562 C20.33433594 314.96248047 21.52414062 315.19644531 22.75 315.4375 C23.95527344 315.66759766 25.16054688 315.89769531 26.40234375 316.13476562 C31.27280762 317.06723512 36.13805441 318.02413966 41 319 C45.1712757 304.45347002 47.71679973 289.94420184 49.5625 274.9375 C49.73471069 273.55038818 49.73471069 273.55038818 49.91040039 272.13525391 C51.24662067 260.7750073 52.04870175 249.41557904 53 238 C35.51 238 18.02 238 0 238 C-0.66 233.05 -1.32 228.1 -2 223 C-3.32 221.02 -4.64 219.04 -6 217 C13.47 217 32.94 217 53 217 C51.08970163 191.89322148 48.74738047 167.77661924 43.62548828 143.13183594 C43.3100708 141.61058105 43.3100708 141.61058105 42.98828125 140.05859375 C42.79790283 139.15423584 42.60752441 138.24987793 42.41137695 137.31811523 C42 135 42 135 42 132 C41.1970752 132.16604736 40.39415039 132.33209473 39.56689453 132.50317383 C13.93569115 137.75660475 -11.75635928 142 -38 142 C-38 164.11 -38 186.22 -38 209 C-59.33333333 203.66666667 -59.33333333 203.66666667 -61 202 C-61.09386381 200.1281906 -61.11743804 198.2528194 -61.11352539 196.37866211 C-61.11344986 195.17749252 -61.11337433 193.97632294 -61.11329651 192.73875427 C-61.10813522 191.4314888 -61.10297394 190.12422333 -61.09765625 188.77734375 C-61.09579198 187.43355868 -61.09436812 186.08977293 -61.09336853 184.74598694 C-61.08954402 181.20317723 -61.07971432 177.6604083 -61.06866455 174.11761475 C-61.05844899 170.50484773 -61.0538706 166.89207416 -61.04882812 163.27929688 C-61.03809198 156.1861812 -61.02101636 149.09309326 -61 142 C-62.78265259 142.01305176 -62.78265259 142.01305176 -64.60131836 142.02636719 C-80.9616939 142.11140156 -80.9616939 142.11140156 -88.5625 141.25 C-89.3663916 141.16419678 -90.1702832 141.07839355 -90.99853516 140.98999023 C-106.78650821 139.20767024 -122.52167696 136.58318526 -138 133 C-140.92679114 147.29524695 -143.73537533 161.58373075 -146 176 C-150.84734228 175.41337896 -155.28870764 174.42319653 -159.9375 172.9375 C-161.08089844 172.57527344 -162.22429687 172.21304688 -163.40234375 171.83984375 C-164.25957031 171.56269531 -165.11679687 171.28554688 -166 171 C-166.23133598 163.65122717 -165.35235961 156.80043985 -164.125 149.5625 C-163.95097656 148.49451172 -163.77695312 147.42652344 -163.59765625 146.32617188 C-162.53042744 139.85560313 -161.33424732 133.42072853 -160 127 C-160.61705811 126.82984375 -161.23411621 126.6596875 -161.86987305 126.484375 C-180.01982791 121.43908674 -198.2851058 116.15975981 -214.8203125 106.93359375 C-217.10955571 105.66751737 -217.10955571 105.66751737 -220 107 C-221.45798515 108.74266071 -221.45798515 108.74266071 -222.78515625 110.953125 C-223.31093262 111.78908203 -223.83670898 112.62503906 -224.37841797 113.48632812 C-224.93416504 114.39833984 -225.48991211 115.31035156 -226.0625 116.25 C-226.92705811 117.66442383 -226.92705811 117.66442383 -227.80908203 119.10742188 C-236.65906796 133.84515777 -243.40424452 148.96416591 -248.52734375 165.36328125 C-248.78201416 166.14268066 -249.03668457 166.92208008 -249.29907227 167.72509766 C-250.02924028 169.97692642 -250.02924028 169.97692642 -250.48022461 172.23974609 C-251.06649008 174.52315128 -251.61198515 176.08731168 -253 178 C-256.38941244 179.96592678 -259.92302081 180.97129084 -263.6875 182 C-264.67556641 182.29777344 -265.66363281 182.59554687 -266.68164062 182.90234375 C-269.11409564 183.63090516 -271.55131131 184.32844689 -274 185 C-274.27614152 178.03981752 -273.38092037 172.14441621 -271.5625 165.4375 C-271.29590576 164.44443848 -271.02931152 163.45137695 -270.75463867 162.42822266 C-263.42584268 136.03296025 -251.89893409 112.26290425 -236 90 C-235.57895996 89.40783691 -235.15791992 88.81567383 -234.72412109 88.20556641 C-227.92437179 78.74945108 -220.06536143 70.37154408 -212 62 C-211.24589844 61.20464844 -210.49179687 60.40929687 -209.71484375 59.58984375 C-204.53648687 54.24135604 -198.86612206 49.57409011 -193 45 C-192.46020508 44.57847656 -191.92041016 44.15695313 -191.36425781 43.72265625 C-164.09354589 22.60782588 -131.82800635 7.08629491 -98 0 C-97.10796875 -0.19464844 -96.2159375 -0.38929687 -95.296875 -0.58984375 C-65.19732694 -6.88114273 -29.93937514 -7.35581722 0 0 Z " fill="#4674D6" transform="translate(623,92)"/>
<path d="M0 0 C3.63491605 1.09879054 7.27968434 2.16312937 10.9241333 3.22979736 C12.93235286 3.81762534 14.94011292 4.407025 16.94744873 4.99786377 C28.86727911 8.49884787 40.8379347 11.81616865 52.80905151 15.1366272 C56.72425892 16.22262157 60.63871121 17.31131851 64.55297852 18.4006958 C65.19989938 18.58073245 65.84682024 18.7607691 66.51334476 18.94626141 C67.81819078 19.3094011 69.123035 19.67254723 70.42787743 20.03569984 C72.37735686 20.57818794 74.32689065 21.12048023 76.27644348 21.66270447 C88.14489656 24.96372623 100.01139798 28.27169115 111.87524414 31.5892334 C113.92424983 32.1619879 115.97339606 32.73423996 118.02270508 33.3059082 C122.70061667 34.61091218 127.37621632 35.92298948 132.04736328 37.25201416 C136.11441826 38.40669174 140.19338037 39.50558536 144.28076172 40.58599854 C146.46006199 41.17970324 148.63926367 41.77377 150.81835938 42.3682251 C151.8336824 42.62721588 152.84900543 42.88620667 153.89509583 43.15304565 C160.05786278 44.86380139 163.25109625 46.38012037 166.71289062 51.8447876 C167.77193029 55.0219066 167.84386464 57.27987082 167.85333252 60.61801147 C167.85904266 61.82288712 167.86475281 63.02776276 167.87063599 64.26914978 C167.87188147 65.60702504 167.87300654 66.94490042 167.87402344 68.28277588 C167.87865305 69.6909142 167.88367791 71.09905127 167.8890686 72.50718689 C167.90220357 76.34120972 167.90864275 80.17521501 167.91307926 84.00925684 C167.9160156 86.41507735 167.92012203 88.82089314 167.92458344 91.22671127 C167.93827742 98.78248037 167.9479279 106.3382386 167.95178533 113.89401925 C167.95623442 122.55848612 167.97362572 131.22279273 168.00278592 139.88721097 C168.02461953 146.61372436 168.03450141 153.34019348 168.03582644 160.06674182 C168.03686158 164.06770103 168.0424835 168.06851008 168.06064606 172.0694313 C168.36605588 243.57985347 144.50746554 300.73115773 94.21289062 351.5322876 C89.15928154 356.58589669 83.98732077 361.32601806 78.36523438 365.7510376 C75.53969581 367.98150692 72.82042371 370.31405706 70.08789062 372.6572876 C51.27959918 388.31876065 30.06570567 401.006255 8.46484375 412.38677979 C5.71711974 413.84254698 2.98880027 415.3309076 0.25976562 416.8213501 C-1.48401763 417.74772996 -3.22877016 418.67228821 -4.97460938 419.5947876 C-5.75118896 420.02549561 -6.52776855 420.45620361 -7.32788086 420.89996338 C-13.32209494 423.99544654 -18.5957831 425.14012236 -25.28710938 423.8447876 C-30.66154525 421.84097371 -35.66182124 419.27538084 -40.72460938 416.5947876 C-42.15106443 415.85853823 -43.57807204 415.12335849 -45.00561523 414.38922119 C-56.04606727 408.66971031 -66.82328208 402.56611385 -77.28710938 395.8447876 C-77.95403809 395.42036377 -78.6209668 394.99593994 -79.30810547 394.55865479 C-96.14485931 383.79286601 -112.08692577 371.54868377 -126.83789062 358.0713501 C-128.42259473 356.63071001 -130.02334777 355.2074469 -131.64257812 353.8057251 C-173.98800174 316.91754205 -204.22887636 261.10171718 -208.28710938 204.8447876 C-208.44032761 199.87804967 -208.45476196 194.91211476 -208.46411133 189.94342041 C-208.47038957 188.46401312 -208.47703753 186.98460736 -208.48402405 185.50520325 C-208.50487964 180.68611716 -208.51539891 175.86703136 -208.52539062 171.0479126 C-208.52944308 169.381996 -208.53356014 167.71607955 -208.53774071 166.05016327 C-208.5567401 158.23122981 -208.57099019 150.41230556 -208.57935268 142.59335351 C-208.58914977 133.58460286 -208.61555534 124.57609628 -208.65585357 115.56743169 C-208.6860036 108.58714951 -208.70081989 101.60693748 -208.70413369 94.62659144 C-208.70648245 90.46365001 -208.71542269 86.30097097 -208.74059486 82.13809967 C-208.76386587 78.2276443 -208.76811302 74.3176245 -208.75783348 70.40711784 C-208.75733802 68.97443886 -208.76366164 67.54173843 -208.77738953 66.10912514 C-208.88737193 53.95007379 -208.88737193 53.95007379 -206.51391602 50.08216858 C-204.40096675 47.95918564 -202.95074994 46.75121098 -200.18823242 45.66290283 C-199.39629486 45.34997284 -198.6043573 45.03704285 -197.78842163 44.71463013 C-193.52226091 43.23105365 -189.22361127 41.95265251 -184.86914062 40.75494385 C-183.30533157 40.31535339 -183.30533157 40.31535339 -181.70993042 39.86688232 C-179.40277485 39.21912064 -177.09474801 38.57445631 -174.78598022 37.9324646 C-171.01032947 36.88245892 -167.2368415 35.82490211 -163.46411133 34.76446533 C-162.7970539 34.57699517 -162.12999647 34.38952501 -161.44272518 34.19637394 C-160.04451389 33.80341756 -158.64630891 33.41043868 -157.24810982 33.01743889 C-155.02837475 32.3938602 -152.80839011 31.77117629 -150.58836365 31.14863586 C-129.69489279 25.28688255 -108.82733524 19.33345379 -87.9559021 13.39382935 C-81.01619049 11.41896547 -74.07613039 9.44532841 -67.13598633 7.47198486 C-58.92157452 5.13624542 -50.70716583 2.80049516 -42.49291992 0.46417236 C-41.24121868 0.10821031 -41.24121868 0.10821031 -39.96423054 -0.25494289 C-38.79267807 -0.58817861 -38.79267807 -0.58817861 -37.59745789 -0.92814636 C-36.86616291 -1.13580281 -36.13486794 -1.34345926 -35.38141251 -1.55740833 C-34.00303067 -1.95085771 -32.6256416 -2.34780467 -31.24935532 -2.74852276 C-20.1745473 -5.96640107 -10.72603694 -3.24488907 0 0 Z M-29.54516602 25.82574463 C-30.65574135 26.14354464 -30.65574135 26.14354464 -31.78875256 26.46776485 C-34.25932959 27.17569605 -36.72826351 27.88919741 -39.19726562 28.6026001 C-40.94086875 29.10318266 -42.68458437 29.60337351 -44.42840576 30.10319519 C-48.14036177 31.16783259 -51.85164847 32.23475972 -55.56240845 33.30355835 C-64.23414244 35.80111647 -72.90898028 38.28785349 -81.58385277 40.77448463 C-83.50342064 41.32476398 -85.42294695 41.87518834 -87.34243202 42.42575645 C-105.12039272 47.52461182 -122.91992059 52.54122518 -140.74633789 57.46832275 C-145.03460268 58.65533795 -149.31698634 59.8616451 -153.59576416 61.08239746 C-155.51960083 61.62737181 -157.44560122 62.16473106 -159.37298584 62.69702148 C-162.56213486 63.58068593 -165.74317911 64.4896523 -168.92382812 65.40338135 C-169.91421585 65.67247818 -170.90460358 65.94157501 -171.92500305 66.21882629 C-172.84331406 66.48783249 -173.76162506 66.75683868 -174.70776367 67.03399658 C-175.52077438 67.26328354 -176.3337851 67.4925705 -177.1714325 67.72880554 C-180.25986803 69.35790055 -180.97475738 70.57391147 -182.28710938 73.8447876 C-182.71591565 77.56065368 -182.68636634 81.25015219 -182.65942383 84.98712158 C-182.66307449 86.11318817 -182.66672516 87.23925476 -182.67048645 88.39944458 C-182.67860283 92.1300762 -182.66495776 95.86027443 -182.65039062 99.59088135 C-182.64987154 102.19904073 -182.65039112 104.8072005 -182.65190125 107.4153595 C-182.65278443 112.89554979 -182.64171656 118.37561651 -182.62329102 123.85577393 C-182.60230254 130.13287173 -182.59857478 136.40978628 -182.60485297 142.686912 C-182.61062159 148.77214225 -182.60469513 154.85729961 -182.59367943 160.94252205 C-182.5898727 163.50609141 -182.58866005 166.06966616 -182.59026527 168.63323784 C-182.59568934 220.51939932 -170.22212891 265.91428904 -137.28710938 306.8447876 C-136.5471875 307.78967041 -135.80726563 308.73455322 -135.04492188 309.70806885 C-129.56692248 316.59943108 -123.58756782 322.71615984 -117.28710938 328.8447876 C-115.01043097 331.10445047 -112.74178231 333.3626512 -110.54101562 335.6963501 C-104.89072837 341.62066976 -98.54861521 346.51241032 -92.06445312 351.47320557 C-90.41443142 352.74653275 -88.78534409 354.04149173 -87.16210938 355.34869385 C-73.89031008 365.89503436 -59.29700735 374.6098059 -44.41162109 382.67681885 C-42.0518072 383.97414701 -39.71960011 385.31556453 -37.38476562 386.6572876 C-35.7070208 387.59593352 -34.0286451 388.53345278 -32.34960938 389.4697876 C-31.1962207 390.14582031 -31.1962207 390.14582031 -30.01953125 390.83551025 C-25.48521474 393.31527583 -21.96270877 394.56293584 -16.8034668 393.6416626 C-11.16027571 391.85458821 -6.06033835 388.9056795 -0.91210938 386.0322876 C0.33953573 385.34575771 1.59141009 384.65964561 2.84350586 383.97393799 C59.525003 352.73700935 113.52176248 305.01774409 132.55273438 241.02056885 C135.54808043 230.46093873 138.44479106 219.76877779 139.71289062 208.8447876 C139.79328897 208.17934339 139.87368732 207.51389917 139.95652199 206.82828999 C140.72470787 199.94955268 140.87978535 193.13974166 140.90576172 186.22247314 C140.91393921 185.00009445 140.9221167 183.77771576 140.93054199 182.51829529 C140.95519514 178.50603547 140.97201873 174.49381258 140.98632812 170.48150635 C140.9916963 169.09292917 140.99707381 167.70435203 141.00246048 166.31577492 C141.02402694 160.54301063 141.04276698 154.77024884 141.05408287 148.99745464 C141.07036323 140.75128956 141.10371018 132.5055921 141.16048372 124.2596032 C141.19916746 118.44196179 141.21871244 112.62444572 141.22400343 106.80667907 C141.22765317 103.33839581 141.23963716 99.87061486 141.27210617 96.40247154 C141.30774846 92.54154978 141.30382 88.68122045 141.29638672 84.82012939 C141.32099472 83.10337006 141.32099472 83.10337006 141.34609985 81.35192871 C141.32937093 75.13123098 141.32937093 75.13123098 138.51950073 69.72029114 C135.71230057 67.8443933 133.46601651 66.766936 130.22363281 65.86138916 C129.15469788 65.55400818 128.08576294 65.2466272 126.98443604 64.92993164 C125.8377948 64.61824036 124.69115356 64.30654907 123.50976562 63.9854126 C121.70690094 63.47412811 121.70690094 63.47412811 119.86761475 62.95251465 C116.15324733 61.90219579 112.43333486 60.87333857 108.71289062 59.8447876 C106.57624698 59.24070118 104.44014939 58.63467898 102.3046875 58.02642822 C95.86314449 56.19524856 89.41342844 54.3939794 82.96289062 52.5947876 C78.027716 51.21557533 73.09292398 49.83499746 68.15820312 48.4541626 C67.51630413 48.27464554 66.87440514 48.09512848 66.21305466 47.91017151 C55.73980562 44.98084761 45.27361034 42.02703758 34.81018066 39.06284332 C32.3437913 38.36429653 29.87724906 37.66629248 27.41064453 36.96850586 C26.60187111 36.7397086 25.79309769 36.51091133 24.95981598 36.27518082 C23.33412566 35.81530626 21.70842887 35.35545459 20.08272552 34.89562607 C16.06437499 33.75877109 12.04646177 32.62041066 8.02941895 31.47894287 C4.23954373 30.40204254 0.44866583 29.32874736 -3.34298325 28.25811005 C-4.74777298 27.86069796 -6.15217174 27.46190096 -7.55615616 27.06165314 C-9.48091606 26.5131163 -11.4071693 25.96982752 -13.33349609 25.42681885 C-14.95757889 24.96626099 -14.95757889 24.96626099 -16.61447144 24.49639893 C-21.3407328 23.34409715 -25.00866662 24.50660149 -29.54516602 25.82574463 Z " fill="#F4F9FC" transform="translate(437.287109375,273.15521240234375)"/>
<path d="M0 0 C4.01253963 1.23797734 7.76055635 2.77377593 11.55688477 4.5637207 C23.35454996 10.09417198 35.62735939 14.05693008 48.01611328 18.03759766 C52.02072453 19.32921748 56.01073998 20.66180378 60 22 C59.74605469 23.24910156 59.49210937 24.49820313 59.23046875 25.78515625 C56.57403797 39.13074343 54.61012365 52.49017217 53 66 C53.86902954 66.18828369 53.86902954 66.18828369 54.75561523 66.38037109 C59.22419839 67.35904108 63.6542589 68.39738856 68.0625 69.625 C69.00222656 69.88539063 69.94195312 70.14578125 70.91015625 70.4140625 C71.94462891 70.70410156 71.94462891 70.70410156 73 71 C73.12955078 69.45119141 73.12955078 69.45119141 73.26171875 67.87109375 C76.04440453 37.91119094 76.04440453 37.91119094 81 28 C86.61170289 28.3829162 92.00439856 29.17264046 97.5 30.375 C104.40548858 31.79773885 111.31026333 32.74718548 118.3125 33.5625 C119.27542969 33.67706543 120.23835937 33.79163086 121.23046875 33.90966797 C133.46630247 35.2815291 145.70895058 36.05453466 158 37 C158.33 56.8 158.66 76.6 159 97 C166.26 99.31 173.52 101.62 181 104 C181 81.89 181 59.78 181 37 C190.219375 36.1646875 190.219375 36.1646875 199.625 35.3125 C216.29042045 33.74242446 232.63676573 31.47759502 249.10546875 28.48681641 C253.06030296 27.82167307 257.00882787 27.38474223 261 27 C266.14472531 45.60858091 268.92163427 64.49706269 270.75 83.6875 C270.81502716 84.35628174 270.88005432 85.02506348 270.947052 85.71411133 C271.79592329 94.57849378 272 103.02534524 272 112 C243.29 112.495 243.29 112.495 214 113 C215.32 114.65 216.64 116.3 218 118 C219 122 219 122 219 133 C236.49 133 253.98 133 272 133 C272 145.3968254 272 145.3968254 271.44921875 151.15234375 C271.32949707 152.41328857 271.20977539 153.6742334 271.08642578 154.97338867 C270.88895752 156.93562378 270.88895752 156.93562378 270.6875 158.9375 C270.61964294 159.61841705 270.55178589 160.29933411 270.48187256 161.00088501 C268.63574076 179.43604539 265.81959773 197.09319422 261 215 C259.57119507 214.73521851 259.57119507 214.73521851 258.11352539 214.46508789 C254.54136129 213.80398736 250.96842914 213.14711982 247.39526367 212.49145508 C245.85599219 212.20840955 244.31692446 211.92425339 242.77807617 211.63891602 C240.55181143 211.22632362 238.32481702 210.81788085 236.09765625 210.41015625 C235.4222731 210.28407486 234.74688995 210.15799347 234.05104065 210.02809143 C229.02201494 209.11335688 224.11333033 208.56814781 219 208 C219 215.26 219 222.52 219 230 C221.32998047 230.16822266 221.32998047 230.16822266 223.70703125 230.33984375 C230.15174425 230.92572675 236.37240982 232.18191997 242.6875 233.5625 C243.78255859 233.79646484 244.87761719 234.03042969 246.00585938 234.27148438 C248.67185989 234.84193863 251.33646071 235.41818224 254 236 C252.32631633 244.70561639 248.94643047 252.11967878 245 260 C244.63342285 260.7410498 244.2668457 261.48209961 243.88916016 262.24560547 C235.35191868 279.40339625 225.34385056 296.31625879 211.9140625 310.1484375 C204.95960501 317.74238534 202.81604704 326.8807669 199.80273438 336.49316406 C195.23505104 350.75745011 195.23505104 350.75745011 190.73046875 353.26171875 C186.98095703 354.21272576 184.68957628 354.22985876 181 353 C181.21092285 352.4738208 181.4218457 351.9476416 181.63916016 351.40551758 C195.49566284 316.59133652 200.32637383 283.82491772 200.30158257 246.58752799 C200.30050007 243.36117629 200.30542694 240.13484373 200.310188 236.9084962 C200.32119816 229.30267049 200.32176489 221.69689423 200.31567383 214.09106445 C200.30960127 206.26259675 200.32204707 198.43430728 200.3432439 190.60586995 C200.36085777 183.85044806 200.36686275 177.09508301 200.36360615 170.33963901 C200.36179742 166.31885665 200.36439118 162.29820238 200.37832069 158.27744102 C200.39089585 154.50889374 200.38895822 150.74062703 200.37590981 146.97208405 C200.37354616 145.5926256 200.37627114 144.21314735 200.38453293 142.83371162 C200.39501597 140.94728781 200.38508841 139.06078383 200.3742218 137.17436218 C200.37438954 136.12054194 200.37455729 135.06672171 200.37473011 133.98096752 C199.93039149 130.44626623 198.81563506 128.04973726 197 125 C193.63266678 122.44765953 190.21189873 121.30053856 186.16845703 120.17260742 C184.99940323 119.84260742 183.83034943 119.51260742 182.62586975 119.17260742 C181.33655623 118.81675359 180.04720241 118.46104573 178.7578125 118.10546875 C177.38897818 117.72214804 176.02032542 117.3381785 174.65184021 116.95361328 C170.92534723 115.90842969 167.1963445 114.87247121 163.46684647 113.83806992 C159.52707724 112.74359367 155.58973862 111.64044046 151.65209961 110.53833008 C142.32119372 107.92863292 132.9865931 105.33229469 123.65158844 102.73730469 C119.19828376 101.49901206 114.74538377 100.2592663 110.29248047 99.01953125 C109.40596172 98.77273463 108.51944298 98.52593801 107.60606003 98.27166271 C104.03298432 97.27695536 100.45991858 96.28221221 96.8868866 95.28734779 C88.27574796 92.88970561 79.66454686 90.49231823 71.05099106 88.10337162 C67.85023016 87.21545852 64.649815 86.32630282 61.44941711 85.43708229 C59.16150346 84.80201689 56.87305755 84.16889549 54.58459473 83.53581238 C47.96008595 81.69830854 41.354236 79.82559987 34.78076172 77.81103516 C33.69004868 77.47936844 32.59933563 77.14770172 31.47557068 76.8059845 C29.52505932 76.20767092 27.57825478 75.59702411 25.63685608 74.96977234 C15.61339833 71.89612389 6.94350443 72.51422359 -2.98046875 75.58984375 C-3.87816483 75.85382462 -4.7758609 76.11780548 -5.70075989 76.38978577 C-8.53403613 77.22510406 -11.36087898 78.07995858 -14.1875 78.9375 C-17.02561828 79.78837999 -19.86491543 80.6348471 -22.70637512 81.47450256 C-24.46380324 81.99483705 -26.21924154 82.52195944 -27.97221375 83.05711365 C-33.00505128 84.55911433 -37.77611587 85.45718574 -43 86 C-45.34067054 86.48679894 -47.67504007 87.00547835 -50 87.5625 C-51.134375 87.83191406 -52.26875 88.10132813 -53.4375 88.37890625 C-54.283125 88.58386719 -55.12875 88.78882813 -56 89 C-56 85.37 -56 81.74 -56 78 C-55.34 78.33 -54.68 78.66 -54 79 C-47.0421669 78.41517651 -39.56807388 76.27024295 -34 72 C-30.14903477 66.09273111 -29.19935116 58.80630776 -27.74707031 52.01269531 C-26.58453728 47.3245719 -24.72593871 43.0536095 -22.6875 38.6875 C-22.31093262 37.87651855 -21.93436523 37.06553711 -21.54638672 36.22998047 C-15.47607388 23.45077942 -8.77900531 11.13315198 0 0 Z " fill="#2B4477" transform="translate(404,197)"/>
<path d="M0 0 C0.98863037 0.00410889 1.97726074 0.00821777 2.99584961 0.01245117 C4.06770508 0.01438477 5.13956055 0.01631836 6.24389648 0.01831055 C7.36731445 0.03055664 8.49073242 0.04280273 9.64819336 0.05541992 C11.33912109 0.05638672 11.33912109 0.05638672 13.06420898 0.05737305 C21.44556019 0.10278675 21.44556019 0.10278675 22.58569336 1.24291992 C22.67295559 3.02363238 22.69268377 4.80775132 22.68334961 6.59057617 C22.67851562 8.20996094 22.67851562 8.20996094 22.67358398 9.86206055 C22.66101563 11.56652344 22.66101563 11.56652344 22.64819336 13.30541992 C22.64368164 14.4455957 22.63916992 15.58577148 22.63452148 16.76049805 C22.62269083 19.58802344 22.60620746 22.41544632 22.58569336 25.24291992 C23.22563232 25.289729 23.86557129 25.33653809 24.52490234 25.38476562 C35.99847433 26.35470968 46.55887033 29.94924692 55.58569336 37.24291992 C56.20959961 37.74307617 56.83350586 38.24323242 57.47631836 38.75854492 C63.85818397 44.47447673 69.15229914 53.54820584 69.71508789 62.24169922 C69.71677979 63.26904175 69.71677979 63.26904175 69.71850586 64.31713867 C69.71979492 65.06672852 69.72108398 65.81631836 69.72241211 66.58862305 C69.71854492 67.36141602 69.71467773 68.13420898 69.71069336 68.93041992 C69.71456055 69.71481445 69.71842773 70.49920898 69.72241211 71.30737305 C69.71237085 77.11624243 69.71237085 77.11624243 68.58569336 78.24291992 C66.59812308 78.3427505 64.60701816 78.37372745 62.61694336 78.37573242 C61.40651367 78.37702148 60.19608398 78.37831055 58.94897461 78.37963867 C57.6740918 78.37577148 56.39920898 78.3719043 55.08569336 78.36791992 C53.81081055 78.37178711 52.53592773 78.3756543 51.22241211 78.37963867 C50.01198242 78.37834961 48.80155273 78.37706055 47.55444336 78.37573242 C46.43489258 78.37460449 45.3153418 78.37347656 44.16186523 78.37231445 C41.58569336 78.24291992 41.58569336 78.24291992 40.58569336 77.24291992 C40.31340453 75.5588727 40.06815624 73.87042503 39.83569336 72.18041992 C38.59654425 65.16464923 36.224242 60.42259054 30.71069336 55.86791992 C21.47818722 51.06701673 10.27890849 50.80976622 0.21069336 52.96557617 C-6.81565883 55.32360469 -11.04969404 58.57609393 -14.72680664 65.05541992 C-16.99106218 69.98133095 -17.35892788 74.11386205 -15.78930664 79.31323242 C-11.54888552 89.27064987 -1.86326675 92.61613013 7.54602051 96.44256592 C14.60104899 99.21091197 21.81834436 101.57300263 28.99853516 103.99291992 C44.16764883 109.12220085 60.46524062 115.2283963 68.62475586 130.12963867 C74.13353164 142.2444667 74.87483083 158.23512456 70.96069336 170.99291992 C68.83201916 176.23273334 66.11336226 180.82919335 62.58569336 185.24291992 C62.05717773 185.91967773 61.52866211 186.59643555 60.98413086 187.29370117 C52.62328356 196.77792222 38.8761955 202.36411705 26.58569336 204.24291992 C25.26569336 204.24291992 23.94569336 204.24291992 22.58569336 204.24291992 C22.59616699 204.8988916 22.60664063 205.55486328 22.61743164 206.23071289 C22.65891839 209.1930765 22.68499598 212.15537908 22.71069336 215.11791992 C22.72745117 216.15045898 22.74420898 217.18299805 22.76147461 218.24682617 C22.76791992 219.23295898 22.77436523 220.2190918 22.78100586 221.23510742 C22.79147949 222.14631348 22.80195313 223.05751953 22.81274414 223.99633789 C22.58569336 226.24291992 22.58569336 226.24291992 20.58569336 228.24291992 C18.27905273 228.50170898 18.27905273 228.50170898 15.42944336 228.50854492 C13.89610352 228.51241211 13.89610352 228.51241211 12.33178711 228.51635742 C11.26057617 228.50862305 10.18936523 228.50088867 9.08569336 228.49291992 C8.01448242 228.5006543 6.94327148 228.50838867 5.83959961 228.51635742 C4.81737305 228.5137793 3.79514648 228.51120117 2.74194336 228.50854492 C1.33138672 228.50516113 1.33138672 228.50516113 -0.10766602 228.50170898 C-2.41430664 228.24291992 -2.41430664 228.24291992 -4.41430664 226.24291992 C-4.64135742 223.99633789 -4.64135742 223.99633789 -4.60961914 221.23510742 C-4.60317383 220.24897461 -4.59672852 219.2628418 -4.59008789 218.24682617 C-4.57333008 217.21428711 -4.55657227 216.18174805 -4.53930664 215.11791992 C-4.5302832 214.07764648 -4.52125977 213.03737305 -4.51196289 211.96557617 C-4.48834411 209.391129 -4.45540813 206.8171378 -4.41430664 204.24291992 C-5.59379883 204.12174805 -6.77329102 204.00057617 -7.98852539 203.87573242 C-20.99004384 202.23445871 -33.94302733 195.78759156 -42.91821289 186.18823242 C-50.10286281 176.84631164 -52.62957025 165.85941034 -51.41430664 154.24291992 C-49.41430664 152.24291992 -49.41430664 152.24291992 -46.70874023 152.01586914 C-45.58806152 152.02634277 -44.46738281 152.03681641 -43.31274414 152.04760742 C-41.49516602 152.05727539 -41.49516602 152.05727539 -39.64086914 152.06713867 C-38.36985352 152.08389648 -37.09883789 152.1006543 -35.78930664 152.11791992 C-34.51055664 152.12694336 -33.23180664 152.1359668 -31.91430664 152.14526367 C-28.74745497 152.16889689 -25.5809724 152.20184363 -22.41430664 152.24291992 C-22.21732178 152.84402588 -22.02033691 153.44513184 -21.81738281 154.06445312 C-21.55417236 154.86197998 -21.29096191 155.65950684 -21.01977539 156.48120117 C-20.76091553 157.26793213 -20.50205566 158.05466309 -20.23535156 158.86523438 C-17.62808482 166.41568658 -14.55191418 171.25500397 -7.41430664 175.24291992 C1.66524258 179.25674504 16.17261895 179.21818491 25.58569336 176.18041992 C31.81895574 173.31311923 36.01777165 169.6822769 38.58569336 163.24291992 C40.22979411 157.68326343 40.40815765 152.45856469 38.08569336 147.11791992 C33.86487099 139.78250067 26.23989513 136.26710205 18.64819336 133.24291992 C17.82407959 132.90462158 16.99996582 132.56632324 16.15087891 132.21777344 C10.78695226 130.04354175 5.36977047 128.06449472 -0.10180664 126.18041992 C-17.20968944 120.27853909 -37.16761489 113.2833852 -45.97680664 96.21557617 C-51.54810739 83.41108099 -52.48052529 69.41917407 -47.41430664 56.24291992 C-41.34039556 42.32354037 -30.46439824 33.89400997 -16.60180664 28.36791992 C-12.54259088 26.8450837 -8.70882396 25.84633491 -4.41430664 25.24291992 C-4.43001709 24.21352295 -4.43001709 24.21352295 -4.44604492 23.16333008 C-4.48752538 20.06489703 -4.51360733 16.96652231 -4.53930664 13.86791992 C-4.55606445 12.78768555 -4.57282227 11.70745117 -4.59008789 10.59448242 C-4.59975586 9.04760742 -4.59975586 9.04760742 -4.60961914 7.46948242 C-4.62532959 6.03983154 -4.62532959 6.03983154 -4.64135742 4.58129883 C-4.31586317 1.22905802 -3.3333846 0.33539465 0 0 Z " fill="#F4F9FB" transform="translate(407.414306640625,358.757080078125)"/>
<path d="M0 0 C3.23623829 1.371442 4.71186247 4.37702009 6.53076172 7.24511719 C6.96388672 7.91687988 7.39701172 8.58864258 7.84326172 9.28076172 C9.21921155 11.44360772 10.566895 13.62164299 11.90576172 15.80761719 C12.32696289 16.49065918 12.74816406 17.17370117 13.18212891 17.87744141 C27.93431296 42.14287805 36.26993042 68.78664151 39.90576172 96.80761719 C40.004375 97.54592773 40.10298828 98.28423828 40.20458984 99.04492188 C40.29675781 99.7890332 40.38892578 100.53314453 40.48388672 101.29980469 C40.56541992 101.95062012 40.64695312 102.60143555 40.73095703 103.27197266 C40.99544481 107.10852301 40.90576172 110.96196089 40.90576172 114.80761719 C12.19576172 114.80761719 -16.51423828 114.80761719 -46.09423828 114.80761719 C-46.42423828 107.54761719 -46.75423828 100.28761719 -47.09423828 92.80761719 C-47.60730773 87.36505696 -48.15892136 81.97538487 -48.84423828 76.55761719 C-48.92872223 75.86981171 -49.01320618 75.18200623 -49.10025024 74.47335815 C-50.43584397 63.64358685 -52.20407235 52.94054121 -54.43115234 42.25390625 C-55.70925045 36.11210467 -56.61137451 30.06426231 -57.09423828 23.80761719 C-56.34553467 23.55181885 -55.59683105 23.29602051 -54.82543945 23.0324707 C-36.3105801 16.70754868 -36.3105801 16.70754868 -18.34423828 8.99511719 C-17.61487061 8.64715088 -16.88550293 8.29918457 -16.1340332 7.94067383 C-11.82641405 5.81937173 -7.87208644 3.4227811 -3.94482422 0.65649414 C-2.09423828 -0.19238281 -2.09423828 -0.19238281 0 0 Z " fill="#2B4577" transform="translate(743.09423828125,194.1923828125)"/>
<path d="M0 0 C28.71 0 57.42 0 87 0 C87 39.58927429 72.54256401 78.7392834 50 111 C44.38345004 110.4527004 40.09005332 108.29779705 35.125 105.8125 C26.5724235 101.65329717 17.96783236 98.14438459 9 95 C8.12972168 94.69255859 7.25944336 94.38511719 6.36279297 94.06835938 C0.58164022 92.02688667 -5.20598331 90.00465824 -11 88 C-10.46402024 83.19242399 -9.73414093 78.53601791 -8.69287109 73.81445312 C-6.5746023 64.11339602 -5.12550511 54.34495964 -3.875 44.5 C-3.71668701 43.28763672 -3.55837402 42.07527344 -3.39526367 40.82617188 C-1.7266145 27.22497488 -0.98022369 13.72313159 0 0 Z " fill="#2B4577" transform="translate(697,330)"/>
<path d="M0 0 C17.81412633 5.93804211 31.88233323 18.0064494 43 33 C43.77472656 33.99902344 44.54945313 34.99804688 45.34765625 36.02734375 C55.71669585 49.67463174 72 72.24344863 72 90 C59.31753022 92.77172005 46.65151091 95.24961946 33.75 96.75 C32.78465332 96.86512939 31.81930664 96.98025879 30.82470703 97.09887695 C20.54345864 98.21875935 10.38271156 98.50558516 0 99 C0 66.33 0 33.66 0 0 Z " fill="#2B4477" transform="translate(585,113)"/>
<path d="M0 0 C0 32.67 0 65.34 0 99 C-17.57157258 99 -17.57157258 99 -24.875 98.25 C-25.73577148 98.16492188 -26.59654297 98.07984375 -27.48339844 97.9921875 C-41.75328145 96.48849032 -56.02187538 94.24802896 -70 91 C-69.45859921 85.3412493 -67.92447946 80.83770641 -65.5625 75.6875 C-65.20833008 74.90842285 -64.85416016 74.1293457 -64.48925781 73.32666016 C-55.63651942 54.20459167 -44.59210011 37.26269294 -30 22 C-29.319375 21.25621094 -28.63875 20.51242188 -27.9375 19.74609375 C-22.23711659 13.72087231 -8.70003335 0 0 0 Z " fill="#2B4577" transform="translate(562,113)"/>
<path d="M0 0 C-1.43117386 4.31698345 -3.57563096 7.09711947 -6.5625 10.5 C-22.55058151 29.19041486 -35.37026453 51.64935506 -42.92285156 75.08813477 C-43.578125 77 -43.578125 77 -45 80 C-48.68794592 81.74297703 -51.61259907 80.42562355 -55.3203125 79.19140625 C-56.57054199 78.77745605 -57.82077148 78.36350586 -59.10888672 77.93701172 C-60.44787673 77.47967643 -61.7865765 77.02149059 -63.125 76.5625 C-63.79629944 76.33612854 -64.46759888 76.10975708 -65.15924072 75.87652588 C-76.06137291 72.19769625 -86.64295374 68.02414981 -97 63 C-93.69654875 52.62305708 -81.24917767 44.45587818 -73 38 C-71.95807539 37.1669892 -70.91641637 36.33364611 -69.875 35.5 C-62.58496327 29.7195776 -55.02141024 24.73313027 -47 20 C-46.11699219 19.43925781 -45.23398437 18.87851563 -44.32421875 18.30078125 C-32.49440329 10.95636615 -14.19919253 0 0 0 Z " fill="#2B4372" transform="translate(516,117)"/>
<path d="M0 0 C18.12776341 4.56981222 34.98318318 12.39078801 52 20 C40.47987578 45.54431916 0.55319118 64.61839696 -24.02099609 74.17480469 C-27.17033458 75.35635094 -30.32947907 76.50159682 -33.5 77.625 C-34.49813721 77.98045898 -35.49627441 78.33591797 -36.5246582 78.70214844 C-37.4549585 79.01958008 -38.38525879 79.33701172 -39.34375 79.6640625 C-40.58415039 80.08872803 -40.58415039 80.08872803 -41.84960938 80.52197266 C-44 81 -44 81 -47 80 C-46.34 79.360625 -45.68 78.72125 -45 78.0625 C-43.99517459 77.04641605 -42.99582814 76.02490341 -42 75 C-41.41863281 74.40316406 -40.83726562 73.80632812 -40.23828125 73.19140625 C-21.16584589 52.72625756 -10.01232991 25.71348364 0 0 Z " fill="#2A4478" transform="translate(679,439)"/>
<path d="M0 0 C23.97562674 6.88471251 47.31450741 17.56091194 67 33 C67.89589844 33.68707031 68.79179688 34.37414062 69.71484375 35.08203125 C78.5493788 41.98358637 87.67953234 49.47308655 95 58 C95 58.66 95 59.32 95 60 C83.41338094 66.81456602 71.29403888 71.51885786 58.65673828 76.03759766 C56.24452094 76.91142239 53.85501035 77.82975555 51.46484375 78.76171875 C48 80 48 80 45 80 C44.55914063 78.70255859 44.55914063 78.70255859 44.109375 77.37890625 C34.88724713 51.15214384 21.842271 28.17592543 4 7 C0 2.24590164 0 2.24590164 0 0 Z " fill="#2B4474" transform="translate(633,117)"/>
<path d="M0 0 C1.94010468 2.91015702 2.34819225 4.06901879 2.81640625 7.38671875 C2.94080078 8.24330078 3.06519531 9.09988281 3.19335938 9.98242188 C3.37608398 11.32143555 3.37608398 11.32143555 3.5625 12.6875 C3.68818359 13.56083984 3.81386719 14.43417969 3.94335938 15.33398438 C4.30767033 17.8879758 4.66123683 20.44248857 5 23 C5.17708496 24.25014893 5.35416992 25.50029785 5.53662109 26.78833008 C6.06021284 31.01757841 6.12799117 35.18054863 6.09765625 39.4375 C6.0962413 40.20304199 6.09482635 40.96858398 6.09336853 41.75732422 C6.08782853 44.17159142 6.07528779 46.58576144 6.0625 49 C6.05747723 50.64973823 6.05291569 52.29947794 6.04882812 53.94921875 C6.03787886 57.96618255 6.02065666 61.98307487 6 66 C5.67 66 5.34 66 5 66 C4.98541748 65.21689453 4.97083496 64.43378906 4.95581055 63.62695312 C4.5342069 43.21120621 3.31733558 23.20074209 -0.71508789 3.1237793 C-0.80910889 2.42293213 -0.90312988 1.72208496 -1 1 C-0.67 0.67 -0.34 0.34 0 0 Z " fill="#5174C0" transform="translate(800,268)"/>
<path d="M0 0 C2.68967615 3.96541188 2.26034079 8.09086291 2.1875 12.6875 C2.18685547 13.47189453 2.18621094 14.25628906 2.18554688 15.06445312 C2.14046848 20.85953152 2.14046848 20.85953152 1 22 C-0.78071246 22.08726223 -2.5648314 22.10699041 -4.34765625 22.09765625 C-5.42724609 22.09443359 -6.50683594 22.09121094 -7.61914062 22.08789062 C-8.75544922 22.07951172 -9.89175781 22.07113281 -11.0625 22.0625 C-12.20267578 22.05798828 -13.34285156 22.05347656 -14.51757812 22.04882812 C-17.34510351 22.03699747 -20.1725264 22.0205141 -23 22 C-23 21.67 -23 21.34 -23 21 C-15.74 21 -8.48 21 -1 21 C-0.835 18.463125 -0.67 15.92625 -0.5 13.3125 C-0.44779297 12.52270752 -0.39558594 11.73291504 -0.34179688 10.91918945 C-0.10944682 7.2730454 0.05764966 3.65354718 0 0 Z " fill="#E5FAEB" transform="translate(475,415)"/>
<path d="M0 0 C0 0.66 0 1.32 0 2 C-1.43570266 2.81567174 -2.87363434 3.62742093 -4.3125 4.4375 C-5.11300781 4.88996094 -5.91351563 5.34242187 -6.73828125 5.80859375 C-9 7 -9 7 -12 8 C-12 8.66 -12 9.32 -12 10 C-12.928125 10.33 -13.85625 10.66 -14.8125 11 C-20.44928088 13.37765449 -25.16410103 17.3184205 -30 21 C-30.66 20.67 -31.32 20.34 -32 20 C-25.06685275 14.49426542 -17.92427415 9.56235539 -10.375 4.9375 C-9.58109863 4.44854248 -8.78719727 3.95958496 -7.96923828 3.45581055 C-2.25587857 0 -2.25587857 0 0 0 Z " fill="#5679C6" transform="translate(465,115)"/>
<path d="M0 0 C3.97915159 -0.02886984 7.95827653 -0.04675406 11.9375 -0.0625 C13.07380859 -0.07087891 14.21011719 -0.07925781 15.38085938 -0.08789062 C16.46044922 -0.09111328 17.54003906 -0.09433594 18.65234375 -0.09765625 C20.15269165 -0.10551147 20.15269165 -0.10551147 21.68334961 -0.11352539 C24 0 24 0 25 1 C25.08726223 2.78071246 25.10699041 4.5648314 25.09765625 6.34765625 C25.09443359 7.42724609 25.09121094 8.50683594 25.08789062 9.61914062 C25.07951172 10.75544922 25.07113281 11.89175781 25.0625 13.0625 C25.05798828 14.20267578 25.05347656 15.34285156 25.04882812 16.51757812 C25.03699747 19.34510351 25.0205141 22.1725264 25 25 C24.67 25 24.34 25 24 25 C23.67 17.74 23.34 10.48 23 3 C19.92342662 2.23085666 17.55594843 1.83034891 14.453125 1.68359375 C13.60878906 1.64169922 12.76445312 1.59980469 11.89453125 1.55664062 C11.02183594 1.51732422 10.14914062 1.47800781 9.25 1.4375 C7.91775391 1.37272461 7.91775391 1.37272461 6.55859375 1.30664062 C4.37254037 1.20086385 2.18637911 1.09877454 0 1 C0 0.67 0 0.34 0 0 Z " fill="#E6FDE9" transform="translate(405,359)"/>
<path d="M0 0 C0.66 0 1.32 0 2 0 C2.33 7.26 2.66 14.52 3 22 C2.01 22 1.02 22 0 22 C0 14.74 0 7.48 0 0 Z " fill="#4E77CF" transform="translate(623,405)"/>
<path d="M0 0 C6.10737442 1.76463072 12.07433507 3.69557475 18 6 C14.52176885 7.15941038 12.54104422 6.70820884 9 6 C9 5.34 9 4.68 9 4 C8.01 4 7.02 4 6 4 C6.66 5.98 7.32 7.96 8 10 C4.82537057 7.59757773 2.14248259 5.38286724 0 2 C0 1.34 0 0.68 0 0 Z " fill="#213B6F" transform="translate(633,117)"/>
<path d="M0 0 C0.66 1.32 1.32 2.64 2 4 C2.66 4 3.32 4 4 4 C4 4.66 4 5.32 4 6 C2.01739574 7.68732277 0.0167658 9.35366057 -2 11 C-2.33 11.66 -2.66 12.32 -3 13 C-3.66 13 -4.32 13 -5 13 C-3.58192622 8.52761347 -1.88695626 4.28853694 0 0 Z " fill="#232B45" transform="translate(787,411)"/>
<path d="M0 0 C0.33 0.99 0.66 1.98 1 3 C-2.61954492 8.64649007 -7.76403341 11.79907061 -14 14 C-14.66 13.34 -15.32 12.68 -16 12 C-15.18015625 11.63648438 -14.3603125 11.27296875 -13.515625 10.8984375 C-5.19098732 7.12469357 -5.19098732 7.12469357 0 0 Z " fill="#E7FBEB" transform="translate(445,524)"/>
<path d="M0 0 C0.33 0 0.66 0 1 0 C1 3.3 1 6.6 1 10 C2.98 9.67 4.96 9.34 7 9 C6.67 9.66 6.34 10.32 6 11 C3.6859378 11.73075648 1.35171131 12.40138258 -1 13 C-1.0272415 11.58344207 -1.04650467 10.16672955 -1.0625 8.75 C-1.07410156 7.96109375 -1.08570313 7.1721875 -1.09765625 6.359375 C-1.00385306 4.09308998 -0.63241063 2.1711105 0 0 Z " fill="#5275C2" transform="translate(350,264)"/>
<path d="M0 0 C0.66 0.33 1.32 0.66 2 1 C0.56176509 6.63308675 -1.54144009 11.73677223 -4 17 C-4.66 17 -5.32 17 -6 17 C-4.33846988 11.14340094 -2.52958084 5.5409866 0 0 Z " fill="#4D75CD" transform="translate(477,179)"/>
<path d="M0 0 C1.21225993 4.84903972 -0.07101541 6.6944426 -2.4375 10.75 C-2.77587891 11.35199219 -3.11425781 11.95398438 -3.46289062 12.57421875 C-4.29768265 14.05568065 -5.14741494 15.52870608 -6 17 C-6.66 16.67 -7.32 16.34 -8 16 C-5.36 10.72 -2.72 5.44 0 0 Z " fill="#4E78D1" transform="translate(654,445)"/>
<path d="M0 0 C0.33 0.66 0.66 1.32 1 2 C0.14453125 4.09375 0.14453125 4.09375 -1.1875 6.5 C-1.61417969 7.2940625 -2.04085937 8.088125 -2.48046875 8.90625 C-4.13704667 11.18883551 -5.40664227 11.97820595 -8 13 C-7.04600922 11.20601733 -6.08665974 9.41488345 -5.125 7.625 C-4.59132813 6.62726563 -4.05765625 5.62953125 -3.5078125 4.6015625 C-2 2 -2 2 0 0 Z " fill="#4E77D0" transform="translate(639,475)"/>
<path d="M0 0 C0 3.38755275 -0.43021201 5.00313201 -2 8 C-3.89911619 9.85365863 -5.87999381 11.38695181 -8 13 C-6.40956621 7.91061189 -3.2553049 4.12543357 0 0 Z " fill="#4E76CF" transform="translate(502,136)"/>
<path d="M0 0 C0 3.68553144 -0.8522582 5.03759752 -3 8 C-5.6875 9.8125 -5.6875 9.8125 -8 11 C-6.63629701 8.00779732 -5.05091917 5.70973471 -2.875 3.25 C-2.33617187 2.63640625 -1.79734375 2.0228125 -1.2421875 1.390625 C-0.62730469 0.70226562 -0.62730469 0.70226562 0 0 Z " fill="#4F78D1" transform="translate(515,120)"/>
<path d="M0 0 C0.66 0 1.32 0 2 0 C2 4.62 2 9.24 2 14 C1.01 13.67 0.02 13.34 -1 13 C-0.67 8.71 -0.34 4.42 0 0 Z " fill="#EDFDF1" transform="translate(389,425)"/>
<path d="M0 0 C3.96 0 7.92 0 12 0 C8.83759418 2.10827055 7.49342531 2.33817465 3.8125 2.625 C2.46091797 2.73714844 2.46091797 2.73714844 1.08203125 2.8515625 C0.05142578 2.92503906 0.05142578 2.92503906 -1 3 C-0.67 2.01 -0.34 1.02 0 0 Z " fill="#E1F8E6" transform="translate(431,560)"/>
<path d="M0 0 C2.4294516 3.6441774 2.16179575 5.71241272 2 10 C1.01 10.495 1.01 10.495 0 11 C-0.19491452 9.54263913 -0.38069358 8.08405407 -0.5625 6.625 C-0.66691406 5.81289063 -0.77132812 5.00078125 -0.87890625 4.1640625 C-1 2 -1 2 0 0 Z " fill="#23232B" transform="translate(230,491)"/>
<path d="M0 0 C0.33 0.99 0.66 1.98 1 3 C-1.04074305 6.57130033 -2.55753136 8.7050209 -6 11 C-4.54955729 6.89041233 -2.48889248 3.56741255 0 0 Z " fill="#E6FAEA" transform="translate(549,558)"/>
<path d="M0 0 C0.66 0.33 1.32 0.66 2 1 C-1.44615385 6.78461538 -1.44615385 6.78461538 -4.25 7.875 C-4.8275 7.91625 -5.405 7.9575 -6 8 C-4.55746343 4.63408134 -2.66735273 2.48952921 0 0 Z " fill="#E7FBEB" transform="translate(373,397)"/>
<path d="M0 0 C2.97 0 5.94 0 9 0 C5.55549263 2.29633824 3.06187717 2.54016485 -1 3 C-0.67 2.01 -0.34 1.02 0 0 Z " fill="#ECFCEE" transform="translate(346,314)"/>
<path d="M0 0 C0.66 0.33 1.32 0.66 2 1 C-0.35380297 4.92300495 -2.64464931 5.83857315 -7 7 C-4.66666667 4.66666667 -2.33333333 2.33333333 0 0 Z " fill="#14161E" transform="translate(512,641)"/>
<path d="M0 0 C-2.5654594 2.5654594 -4.47686668 2.54046087 -8 3 C-8.33 2.34 -8.66 1.68 -9 1 C-3.375 -1.125 -3.375 -1.125 0 0 Z " fill="#1F2A44" transform="translate(654,538)"/>
<path d="M0 0 C0.33 0 0.66 0 1 0 C1.1953125 6.0546875 1.1953125 6.0546875 1 8 C0.34 8.66 -0.32 9.32 -1 10 C-2.31223496 6.06329512 -1.24296256 3.87511856 0 0 Z " fill="#4871C7" transform="translate(776,377)"/>
<path d="M0 0 C1.65 0.33 3.3 0.66 5 1 C2.73814546 3.26185454 1.03016439 4.03921617 -2 5 C-2.99 4.67 -3.98 4.34 -5 4 C-4.0409375 3.8453125 -4.0409375 3.8453125 -3.0625 3.6875 C-2.381875 3.460625 -1.70125 3.23375 -1 3 C-0.67 2.01 -0.34 1.02 0 0 Z " fill="#6BA66F" transform="translate(388,385)"/>
<path d="M0 0 C3 1 3 1 4.1875 3.375 C5 6 5 6 5 9 C0 3.375 0 3.375 0 0 Z " fill="#1D2843" transform="translate(759,176)"/>
</svg>
